<svg version="1.2" xmlns="http://www.w3.org/2000/svg" viewBox="0 0 575 504" width="512" height="512">
	<style>
		.s0 { fill: #d32f2f } 
	</style>
	<g>
		<path class="s0" d="m432.73 24.1c10.07-3.84 19.85-9.25 30.28-11.12 17.46-3.12 34.36-0.09 49.31 10.68 2.81 2.03 6.3 3.47 9.7 4.31 9.92 2.51 19.99 4.54 29.96 6.85 5.11 1.19 9.28 3.15 9.58 9.61 0.3 6.2-2.44 10.15-7.69 12.48-8.6 3.81-17.36 7.3-26.06 10.95-10.97 4.63-22.02 9.13-32.88 13.99-18.27 8.16-23.86 7.21-38.08-6.07 2.42 3.28 4.2 7.48 7.37 9.63 4.68 3.14 4.72 6.5 3.81 11.31-4.58 24.19-3.81 48.72 5.91 71.01 9.33 21.4 22.09 41.48 35 61.06 10.25 15.54 12.07 20.26 0.05 34.41-13.05 15.38-27.36 29.68-41.35 44.22-2.76 2.87-6.66 4.68-10.01 6.96q-1.19-0.62-2.35-1.21c2.96-9.13 5.36-18.53 9.08-27.34 4.52-10.7 10.2-20.9 15.33-31.32 1.8-3.68 1.71-6.19-2.69-8.63-19.35-10.7-38.4-21.9-56.7-32.42 1.46 1.75 3.88 4.63 7.37 8.83-11.48 6.23-22.16 12.5-33.25 17.96-14.17 6.95-28.84 12.89-42.89 20.05-3.56 1.83-6.67 6.23-8.13 10.13-3.76 10.04-6.5 20.45-9.95 31.76-3.87-2.78-6.89-4.95-9.9-7.09q-0.55 0.43-1.07 0.89c1.39 1.73 2.87 3.4 4.15 5.2 11.55 16.5 23.57 32.68 34.34 49.67 6.32 10 3.58 20.47-3.88 29.28-10.38 12.25-21.1 24.21-31.67 36.28-1.78 2.05-3.51 4.15-4.83 5.73 11.15 14.8 21.92 29.07 32.53 43.46 0.28 0.37-1.27 2.08-2.26 3.59 14.68-0.89 16.8 12.96 25.26 19.32q-0.29 1.39-0.57 2.79c-16.15 0.93-32.31 1.89-48.46 2.67-1.1 0.04-2.67-1.01-3.33-1.99-3.17-4.63 2.89-18.73 8.44-19.92 4.04-0.87 8.05-1.76 14.1-3.06-3.31-0.16-4.75-0.59-5.98-0.25-13.82 3.84-22.27-3.63-29.57-13.8-4.68-6.53-10.52-12.39-14.1-19.44-3.13-6.14-6.07-13.85-5.13-20.29 1.87-12.73 6.29-25.12 10.2-37.49 0.45-1.43 4.4-2.55 6.68-2.46 6.6 0.27 13.14 1.23 21.68 2.14-18.9-5.95-36.28-9.67-52-16.95-13.56-6.27-26.11-15.56-37.47-25.42-13.9-12.05-16.5-29.23-14.17-46.66 3.7-27.72 16.18-51.43 38.24-68.59 21.36-16.61 44.15-31.37 68.18-48.26-10.65 2.42-19.74 4.29-28.7 6.55-17.14 4.36-34 10.34-51.39 12.94-11.11 1.66-22.98-1.46-34.48-2.6-1.46-0.14-2.8-1.33-5.93-2.9 3.63-1.39 5.66-2.42 7.81-2.97 8.23-2.12 16.99-2.99 24.66-6.34 30.67-13.46 62.75-19.78 95.97-21.4 1.87-0.09 3.77-0.21 6.34-2.19-2.09-1.05-4.1-2.54-6.34-3.08-36.8-9.29-73.06-8.06-108.2 6.93-27.33 11.64-54.76 12.44-82.64 2.83-3.54-1.21-6.85-3.15-12.55-5.82 4.31-1.41 6.2-2.51 8.12-2.58 23.39-0.86 45.09-7.41 66.06-17.68 31.64-15.51 64.68-14.92 98.23-7.19 13.37 3.08 26.94 5.34 40.41 7.99q0.5-1.12 1-2.21c-2.28-1.6-4.43-3.43-6.87-4.75-32.24-17.41-66.15-29.14-103.34-25.49-14.72 1.44-29.23 5.8-43.6 9.68-16.57 4.47-32.63 10.86-49.33 14.62-28.02 6.35-54.54 0.92-78.98-14.07-2.37-1.46-3.72-4.55-5.54-6.87 2.99-0.69 6.27-2.56 8.92-1.9 22.34 5.59 44.65 5.32 66.58-1 13.24-3.81 26.33-8.69 38.68-14.76 36.57-17.98 74.02-20.56 111.96-6.44 16.25 6.05 31.31 15.36 46.89 23.21 2.44 1.23 4.84 2.55 7.85 4.17-0.09-1.46 0.16-2.44-0.2-2.8-20.47-20.4-41.42-40.09-69.03-50.91-24.66-9.65-49.05-6.62-73.17 1.48-44.47 14.97-89.99 21.7-136.68 15.95-15.19-1.87-29.96-7.44-44.88-11.5-2.05-0.54-4.27-1.71-5.66-3.26-1.34-1.48-2.76-4.15-2.28-5.73 0.46-1.46 3.26-2.48 5.25-3.05 1.48-0.44 3.31 0 4.93 0.27 31.46 5.64 62.24 1.32 93.09-5.25 36.71-7.8 72.47-18.34 107.11-32.76 21.79-9.09 42.03-6.23 60.96 8.19q44.61 33.95 78.38 78.69c9.11 12.08 16.43 12.35 24.03-0.77 8.99-15.52 16.41-31.92 24.53-48.01-8.99-8.26-19.35-14.05-21.47-27.24 10.04 1.98 19.37 2.94 28.06 5.82 6.53 2.16 11.16 1.43 15.52-3.47l-0.18 0.18zm64.3 17.91c-8.72-5.32-12.07-4.54-15.18 2.88 5.75-1.1 10.48-1.99 15.18-2.88z"/>
		<path class="s0" d="m183.45 375.03c-3.08 12.8-6.32 24.98 0.14 36.94 5.02 9.26 11.5 17.36 22.31 19.51 8.22 1.62 16.23-0.46 21.38-7.87 5.66-8.15 6.48-17.07 1.65-25.86-4.54-8.23-9.11-16.56-14.74-24.05-24.9-33.06-18.44-70.3 1.55-102.45 4.11-6.61 9.61-12.34 14.47-18.5q0.95 0.64 1.93 1.3c-2.85 8.53-4.97 17.41-8.67 25.56-11.31 24.93-5.79 48.41 6.44 70.71 5.59 10.22 13.87 19.16 21.86 27.83 9.63 10.43 19.67 20.36 22.45 35.05 3.54 18.78-5.22 31.88-19.51 42.6-26.9 20.24-68.52 11.5-84.47-17.68-10.86-19.9-4.95-47.62 13.21-63.09z"/>
		<path class="s0" d="m280.02 410.05c-7.37-10.17-14.13-18.84-20.02-28.06-1.68-2.63-1.87-7.14-0.95-10.29 1.25-4.36 4.2-8.24 6.43-12.39 10.82 4.86 21.29 9.58 32.77 14.74-6.14 12.11-12.14 23.95-18.23 36z"/>
		<path class="s0" d="m265.94 491.42c0.18-13.65 3.94-21.06 10.54-22.2 23.84-4.06 31.9 0 38.31 19.39-16.31 0.94-32.54 1.87-48.85 2.81z"/>
		<path class="s0" d="m505.22 274.33c7.1 15.18 13.12 29.9 14.42 46.46-16.88-1.03-26.49-9.47-29.43-24.09-2.26-11.21 10.25-14.2 15.01-22.37z"/>
		<path class="s0" d="m280.84 425.2c6.48 12.53 12.87 24.92 20.1 38.93-10.41 0.59-19.35 1.6-28.27 1.46-5.93-0.09-9.84-10.06-6.66-15.26 4.83-7.97 9.49-16.05 14.85-25.1z"/>
		<path class="s0" d="m515.04 353.37c-9.72-8.12-19.42-16.24-30.03-25.12 4.47-4.31 8.21-10.65 11.32-10.36 6.8 0.64 13.46 4.29 19.73 7.58 1.53 0.8 1.76 4.9 1.87 7.53 0.3 6.2 0.16 12.41 0.21 18.62z"/>
		<path class="s0" d="m426 301.67c7.39-7.3 13.26-13.42 19.58-19.03 1.3-1.14 5.18-1.35 6.34-0.3 2.58 2.33 6.05 5.87 5.87 8.7-0.39 6.18-2.72 12.27-4.48 18.32-1.14 3.9-3.56 5.32-7.5 3.1-6.12-3.42-12.3-6.71-19.81-10.79z"/>
		<path class="s0" d="m432.92 23.91q-11.6-9.26-23.23-18.5 0.91-1.55 1.82-3.13c13.56 2.72 27.09 5.46 42.53 8.56-8.57 5.31-14.92 9.26-21.28 13.23-0.03 0.03 0.16-0.16 0.16-0.16z"/>
	</g>
</svg>